<?xml version="1.0" encoding="UTF-8" standalone="no"?>
<svg
   xmlns:dc="http://purl.org/dc/elements/1.1/"
   xmlns:cc="http://creativecommons.org/ns#"
   xmlns:rdf="http://www.w3.org/1999/02/22-rdf-syntax-ns#"
   xmlns:svg="http://www.w3.org/2000/svg"
   xmlns="http://www.w3.org/2000/svg"
   version="1.1"
   x="0px"
   y="0px"
   viewBox="0 0 151.60172 250"
   xml:space="preserve"
   id="svg3978"
   width="151.60172"
   height="250"><title
     id="title3986">Amongst Logo</title><metadata
     id="metadata3984"><rdf:RDF><cc:Work
         rdf:about=""><dc:format>image/svg+xml</dc:format><dc:type
           rdf:resource="http://purl.org/dc/dcmitype/StillImage" /><dc:title>Amongst Logo</dc:title><cc:license
           rdf:resource="" /><dc:creator><cc:Agent><dc:title>Simon Rickel</dc:title></cc:Agent></dc:creator><dc:publisher><cc:Agent><dc:title>Steven Wobser</dc:title></cc:Agent></dc:publisher></cc:Work></rdf:RDF></metadata><defs
     id="defs3982" /><style
     type="text/css"
     id="style3680">
	.st0{fill:#469C46;}
	.st1{fill:#4BA74B;}
	.st2{fill:#59AE50;}
	.st3{fill:#B9B89E;}
	.st4{opacity:0.9;}
	.st5{opacity:0.9;fill:#E7FFEB;stroke:#4D4D4D;stroke-linecap:round;stroke-miterlimit:10;}
	.st6{opacity:0.9;fill-rule:evenodd;clip-rule:evenodd;fill:#E7FFEB;stroke:#4D4D4D;stroke-linecap:round;stroke-miterlimit:10;}
	.st7{fill:#FFFFFF;}
	.st8{opacity:0.75;}
	.st9{fill:url(#SVGID_1_);}
	.st10{fill:none;stroke:#504F4E;stroke-width:4;stroke-miterlimit:10;}
</style><g
     id="Ebene_1"
     transform="matrix(1.4509575,0,0,1.4509575,-257.9588,-182.09516)"><g
       id="g3702"><path
         class="st0"
         d="m 249.5,289.1 c 0,0.4 -0.2,0.6 -0.5,0.7 -5.8,1.6 -11.7,2.3 -17.7,1.5 -0.1,0 -0.3,-0.1 -0.4,-0.1 2.3,-3.1 2.6,-6.1 0.7,-8.6 -1.8,-2.4 -4.8,-3.2 -7.5,-2.2 -3,1.1 -4.4,3.7 -4,7.9 -0.4,-0.2 -0.8,-0.3 -1.2,-0.5 -3.4,-1.5 -6.4,-3.5 -9.1,-6 -3.3,-3 -6.1,-6.5 -8.1,-10.6 0.4,-0.5 1,-0.6 1.6,-0.6 1.7,0 3.3,0.7 4.9,1.3 0.6,0.2 1.1,0.7 1.8,0.6 0,0 0.1,0.1 0.1,0.1 0,0.1 0,0.2 0.2,0.1 1.4,0.9 3,1.4 4.5,2 2.4,1 4.9,2.1 7.5,2.7 3,1.1 6,1.7 9.1,2.2 2.6,0.4 5.2,0.9 7.8,1 1.5,0.1 2.9,0.3 4.4,0.2 2.9,0 5.9,-0.2 8.8,-0.3 0.2,0.2 0.4,0.4 0.4,0.7 -0.1,1.4 0.3,2.8 -0.1,4.2 -0.2,0.1 -0.3,0.2 -0.5,0.3 -0.2,-0.1 -0.4,-0.1 -0.3,0.2 -0.1,0.1 -0.2,0.2 -0.3,0.2 -0.8,0.3 -1.2,0.8 -1.3,1.6 -0.1,0.1 -0.1,0.2 -0.2,0.3 -0.7,0.3 -0.7,0.7 -0.6,1.1 z"
         id="path3682"
         style="fill:#469c46" /><path
         class="st1"
         d="m 222.2,277.4 c -2.6,-0.6 -5.1,-1.7 -7.5,-2.7 -1.5,-0.6 -3.1,-1.1 -4.5,-2 -0.1,0 -0.1,-0.1 -0.2,-0.1 0,0 -0.1,-0.1 -0.1,-0.1 -0.5,-0.4 -1.1,-0.6 -1.6,-0.8 -1.9,-1 -3.8,-2 -5.5,-3.3 -0.4,-0.3 -0.8,-0.6 -1,-1.1 1.1,-0.7 2.3,-1 3.5,-1.1 2.5,-0.3 5,-0.2 7.5,0.3 0.5,0.1 0.8,0.3 1,0.7 2.1,4.6 7.2,6.1 11.5,3.5 0.4,-0.3 0.8,-0.4 1.2,-0.2 3.4,1.2 7,2 10.6,2.4 0.5,0.1 1,0.1 1.1,0.7 0.4,1.3 1.4,2.1 2.4,2.9 0.2,0.1 0.5,0.2 0.4,0.5 -0.1,0.2 -0.4,0.3 -0.6,0.3 -0.6,0 -1.2,0 -1.7,0.1 -1.7,0.3 -3.4,0.2 -5.1,0.2 -3.4,0 -6.9,-0.2 -10.3,-0.6 -0.5,0 -0.9,0 -1.1,0.4 z"
         id="path3684"
         style="fill:#4ba74b" /><path
         class="st2"
         d="m 222.2,277.4 c 0.3,-0.4 0.7,-0.4 1.1,-0.4 3.4,0.4 6.9,0.6 10.3,0.6 1.7,0 3.4,0 5.1,-0.2 0.6,-0.1 1.2,0 1.7,-0.1 0.2,0 0.5,-0.1 0.6,-0.3 0.1,-0.3 -0.2,-0.4 -0.4,-0.5 -1,-0.8 -2,-1.6 -2.4,-2.9 0.9,1.3 2,2.5 3.5,3.1 3.6,1.6 7.8,0.2 9.5,-3.4 0.3,-0.5 0.6,-0.8 1.2,-0.8 3,-0.2 6.1,-0.6 9.1,-0.3 2.4,0.2 4.7,0.7 6.6,2.3 0.8,0.7 1.8,0.7 2.8,0.7 0.2,0 0.4,-0.1 0.7,0 -0.1,0.4 -0.4,0.6 -0.7,0.7 -0.2,-0.2 -0.4,-0.1 -0.6,0 -1.5,0.7 -3,1.3 -4.6,1.7 -2.5,0.7 -4.9,1.5 -7.5,1.9 -2,0.3 -4,0.6 -6.1,1 -2.9,0.1 -5.9,0.3 -8.8,0.3 -1.5,0 -2.9,-0.2 -4.4,-0.2 -2.6,-0.1 -5.2,-0.6 -7.8,-1 -2.9,-0.5 -6,-1.1 -8.9,-2.2 z"
         id="path3686"
         style="fill:#59ae50" /><path
         class="st1"
         d="m 252.3,280.5 c 2,-0.3 4,-0.6 6.1,-1 2.5,-0.4 5,-1.1 7.5,-1.9 1.6,-0.5 3.1,-1 4.6,-1.7 0.2,-0.1 0.4,-0.2 0.6,0 -2.1,1.8 -4.6,3.2 -6.6,5.2 -1.5,1.4 -3.1,2.7 -4.8,3.8 -0.5,0.3 -0.8,0.4 -1.4,0.2 -1.6,-0.7 -3.3,-0.7 -4.9,0 -0.2,0.1 -0.5,0.2 -0.7,0.3 0.4,-1.4 0.1,-2.8 0.1,-4.2 -0.2,-0.3 -0.3,-0.5 -0.5,-0.7 z"
         id="path3688"
         style="fill:#4ba74b" /><path
         class="st3"
         d="m 201.8,267.3 c 0.2,0.5 0.6,0.8 1,1.1 1.7,1.3 3.6,2.3 5.5,3.3 -0.1,0.1 -0.1,0.2 -0.2,0.3 -1.6,-0.6 -3.2,-1.2 -4.9,-1.3 -0.6,0 -1.2,0 -1.6,0.6 -1.5,-1.9 -3.6,-3.1 -5.7,-4.3 -1.3,-0.8 -2.5,-1.6 -3.5,-2.7 -0.4,-0.4 -0.2,-0.7 0,-1 0.2,-0.4 0.5,-0.1 0.8,0 2,1.1 4,2.3 6.1,3.1 0.8,0.3 1.7,0.4 2.5,0.9 z"
         id="path3690"
         style="fill:#b9b89e" /><path
         class="st1"
         d="m 250.1,287.8 c 0.1,-0.8 0.5,-1.4 1.3,-1.6 -0.4,0.5 -0.9,1.1 -1.3,1.6 z"
         id="path3692"
         style="fill:#4ba74b" /><path
         class="st1"
         d="m 249.5,289.1 c -0.1,-0.5 -0.1,-0.8 0.4,-1 0,0.4 -0.2,0.7 -0.4,1 z"
         id="path3694"
         style="fill:#4ba74b" /><path
         class="st1"
         d="m 251.7,285.9 c -0.1,-0.3 0.1,-0.3 0.3,-0.2 -0.1,0.2 -0.2,0.2 -0.3,0.2 z"
         id="path3696"
         style="fill:#4ba74b" /><path
         class="st2"
         d="m 208.1,271.9 c 0.1,-0.1 0.1,-0.2 0.2,-0.3 0.5,0.3 1.1,0.4 1.6,0.8 -0.7,0.2 -1.2,-0.3 -1.8,-0.5 z"
         id="path3698"
         style="fill:#59ae50" /><path
         class="st2"
         d="m 210,272.6 c 0.1,0 0.1,0.1 0.2,0.1 -0.2,0 -0.2,0 -0.2,-0.1 z"
         id="path3700"
         style="fill:#59ae50" /></g><g
       class="st4"
       id="g3762"
       style="opacity:0.9"><circle
         class="st5"
         cx="224.60001"
         cy="284"
         r="2.4000001"
         id="circle3704"
         style="opacity:0.9;fill:#e7ffeb;stroke:#4d4d4d;stroke-linecap:round;stroke-miterlimit:10" /><circle
         class="st5"
         cx="219.39999"
         cy="258.29999"
         r="5.1999998"
         id="circle3706"
         style="opacity:0.9;fill:#e7ffeb;stroke:#4d4d4d;stroke-linecap:round;stroke-miterlimit:10" /><circle
         class="st5"
         cx="230.39999"
         cy="237.7"
         r="8"
         id="circle3708"
         style="opacity:0.9;fill:#e7ffeb;stroke:#4d4d4d;stroke-linecap:round;stroke-miterlimit:10" /><circle
         class="st5"
         cx="204.5"
         cy="272.20001"
         r="5.1999998"
         id="circle3710"
         style="opacity:0.9;fill:#e7ffeb;stroke:#4d4d4d;stroke-linecap:round;stroke-miterlimit:10" /><circle
         class="st5"
         cx="241.10001"
         cy="271.29999"
         r="6.9000001"
         id="circle3712"
         style="opacity:0.9;fill:#e7ffeb;stroke:#4d4d4d;stroke-linecap:round;stroke-miterlimit:10" /><path
         class="st5"
         d="m 218.5,214.4 c 0.1,-3.1 3.4,-6.3 5.6,-4.7 4.1,2.9 7.2,1 6.9,4.7 -0.2,2.7 -4,7.4 -6.3,6.3 -1.6,-0.8 -6.3,-3.5 -6.2,-6.3 z"
         id="path3714"
         style="opacity:0.9;fill:#e7ffeb;stroke:#4d4d4d;stroke-linecap:round;stroke-miterlimit:10" /><circle
         class="st5"
         cx="219.2"
         cy="221"
         r="3.2"
         id="circle3716"
         style="opacity:0.9;fill:#e7ffeb;stroke:#4d4d4d;stroke-linecap:round;stroke-miterlimit:10" /><path
         class="st5"
         d="m 217.1,208.1 c 0,-2 0.6,-5.3 2.6,-5 1.8,0.3 0.6,3.4 2,4.5 0.6,0.5 -3.1,3.3 -3.2,5.1 -0.1,2.1 -1.4,-2.5 -1.4,-4.6 z"
         id="path3718"
         style="opacity:0.9;fill:#e7ffeb;stroke:#4d4d4d;stroke-linecap:round;stroke-miterlimit:10" /><path
         class="st5"
         d="m 224.3,197.5 c -0.1,-2.1 0.8,-2.7 2.9,-2.7 2.1,0 3.6,0.5 3.7,2.6 0.1,1.9 -1.6,3.3 -3.4,2.7 -2.3,-0.8 -3.1,-0.8 -3.2,-2.6 z"
         id="path3720"
         style="opacity:0.9;fill:#e7ffeb;stroke:#4d4d4d;stroke-linecap:round;stroke-miterlimit:10" /><path
         class="st5"
         d="m 230,199.9 c 2.6,-2.5 3.3,-5.7 6.3,-6 3.4,-0.3 6.2,2.5 6.2,6 0,3.5 -2.8,6.4 -6.3,6.3 -2.9,-0.1 -8,-4.5 -6.2,-6.3 z"
         id="path3722"
         style="opacity:0.9;fill:#e7ffeb;stroke:#4d4d4d;stroke-linecap:round;stroke-miterlimit:10" /><circle
         class="st5"
         cx="221.7"
         cy="177.10001"
         r="4.3000002"
         id="circle3724"
         style="opacity:0.9;fill:#e7ffeb;stroke:#4d4d4d;stroke-linecap:round;stroke-miterlimit:10" /><circle
         class="st5"
         cx="225.7"
         cy="184.3"
         r="5.0999999"
         id="circle3726"
         style="opacity:0.9;fill:#e7ffeb;stroke:#4d4d4d;stroke-linecap:round;stroke-miterlimit:10" /><circle
         class="st5"
         cx="235.3"
         cy="218.39999"
         r="5.3000002"
         id="circle3728"
         style="opacity:0.9;fill:#e7ffeb;stroke:#4d4d4d;stroke-linecap:round;stroke-miterlimit:10" /><path
         class="st5"
         d="m 217.1,190 c -0.5,-2.1 -1.7,-4.6 1.4,-4.4 2.1,0.2 4,2.8 4.4,4.4 0.7,2.4 -2,4.4 -4.4,4.4 -2.4,0 -0.9,-2 -1.4,-4.4 z"
         id="path3730"
         style="opacity:0.9;fill:#e7ffeb;stroke:#4d4d4d;stroke-linecap:round;stroke-miterlimit:10" /><circle
         class="st5"
         cx="234.89999"
         cy="178.3"
         r="5.4000001"
         id="circle3732"
         style="opacity:0.9;fill:#e7ffeb;stroke:#4d4d4d;stroke-linecap:round;stroke-miterlimit:10" /><circle
         class="st5"
         cx="245.60001"
         cy="171.60001"
         r="5"
         id="circle3734"
         style="opacity:0.9;fill:#e7ffeb;stroke:#4d4d4d;stroke-linecap:round;stroke-miterlimit:10" /><circle
         class="st5"
         cx="237.89999"
         cy="188.8"
         r="5.0999999"
         id="circle3736"
         style="opacity:0.9;fill:#e7ffeb;stroke:#4d4d4d;stroke-linecap:round;stroke-miterlimit:10" /><path
         class="st5"
         d="m 229.5,209.5 c 0,-2.7 3.4,-3.1 6.1,-3.1 2.7,0 2.9,0.6 2.9,3.3 0,2.7 -0.8,3.3 -3.5,3.3 -2.7,0 -5.5,-0.8 -5.5,-3.5 z"
         id="path3738"
         style="opacity:0.9;fill:#e7ffeb;stroke:#4d4d4d;stroke-linecap:round;stroke-miterlimit:10" /><path
         class="st5"
         d="m 216,198.3 c 0,-2.5 3.1,-3.6 5.2,-4.3 2.4,-0.8 3,1.6 2.4,4 -0.5,2.3 -1.6,4.4 -3,4.9 -2.4,0.8 -4.6,-2.1 -4.6,-4.6 z"
         id="path3740"
         style="opacity:0.9;fill:#e7ffeb;stroke:#4d4d4d;stroke-linecap:round;stroke-miterlimit:10" /><circle
         class="st5"
         cx="229.5"
         cy="169.3"
         r="3.5"
         id="circle3742"
         style="opacity:0.9;fill:#e7ffeb;stroke:#4d4d4d;stroke-linecap:round;stroke-miterlimit:10" /><path
         class="st5"
         d="m 226.2,191.4 c 0,-2.2 4.4,-4.8 5.5,-3 0.8,1.4 0.7,3 2.1,4.2 1.1,0.9 0.1,3.1 -1.9,3 -2.1,0 -5.7,-2 -5.7,-4.2 z"
         id="path3744"
         style="opacity:0.9;fill:#e7ffeb;stroke:#4d4d4d;stroke-linecap:round;stroke-miterlimit:10" /><circle
         class="st5"
         cx="226"
         cy="205.10001"
         r="4.8000002"
         id="circle3746"
         style="opacity:0.9;fill:#e7ffeb;stroke:#4d4d4d;stroke-linecap:round;stroke-miterlimit:10" /><circle
         class="st5"
         cx="220.89999"
         cy="227.7"
         r="3.2"
         id="circle3748"
         style="opacity:0.9;fill:#e7ffeb;stroke:#4d4d4d;stroke-linecap:round;stroke-miterlimit:10" /><circle
         class="st6"
         cx="221.8"
         cy="136.60001"
         r="5.8000002"
         id="circle3750"
         style="clip-rule:evenodd;opacity:0.9;fill:#e7ffeb;fill-rule:evenodd;stroke:#4d4d4d;stroke-linecap:round;stroke-miterlimit:10" /><circle
         class="st6"
         cx="225.3"
         cy="160.3"
         r="3.5999999"
         id="circle3752"
         style="clip-rule:evenodd;opacity:0.9;fill:#e7ffeb;fill-rule:evenodd;stroke:#4d4d4d;stroke-linecap:round;stroke-miterlimit:10" /><circle
         class="st6"
         cx="236.10001"
         cy="151.60001"
         r="7.0999999"
         id="circle3754"
         style="clip-rule:evenodd;opacity:0.9;fill:#e7ffeb;fill-rule:evenodd;stroke:#4d4d4d;stroke-linecap:round;stroke-miterlimit:10" /><circle
         class="st6"
         cx="215"
         cy="166.60001"
         r="6"
         id="circle3756"
         style="clip-rule:evenodd;opacity:0.9;fill:#e7ffeb;fill-rule:evenodd;stroke:#4d4d4d;stroke-linecap:round;stroke-miterlimit:10" /><circle
         class="st6"
         cx="237.60001"
         cy="165"
         r="1.9"
         id="circle3758"
         style="clip-rule:evenodd;opacity:0.9;fill:#e7ffeb;fill-rule:evenodd;stroke:#4d4d4d;stroke-linecap:round;stroke-miterlimit:10" /><circle
         class="st6"
         cx="231.8"
         cy="128.39999"
         r="2.4000001"
         id="circle3760"
         style="clip-rule:evenodd;opacity:0.9;fill:#e7ffeb;fill-rule:evenodd;stroke:#4d4d4d;stroke-linecap:round;stroke-miterlimit:10" /></g><g
       id="Ebene_2"><g
         id="g3768"><g
           id="g3766"><path
             class="st7"
             d="m 219,256.2 c 0.3,0.1 0.6,0.3 0.8,0.4 0.2,0.2 0.3,0.4 0.3,0.7 0.1,0.7 3,0.1 2.9,-0.8 -0.1,-0.8 -0.7,-1 -1.3,-1.4 -0.6,-0.3 -1.3,-0.1 -1.9,0.1 -0.1,0.1 -1.3,0.7 -0.8,1 z"
             id="path3764"
             style="fill:#ffffff" /></g></g><g
         id="g3774"><g
           id="g3772"><path
             class="st7"
             d="m 231,233.3 c 0.9,0.6 1.4,1.4 1.7,2.4 0.3,1.3 3.2,0.6 2.9,-0.8 -0.3,-1.4 -1.1,-2.5 -2.3,-3.3 -0.6,-0.4 -1.5,-0.2 -2.1,0.2 -0.5,0.4 -0.8,1.1 -0.2,1.5 z"
             id="path3770"
             style="fill:#ffffff" /></g></g><g
         id="g3780"><g
           id="g3778"><path
             class="st7"
             d="m 241.5,268.4 c 0.4,0.4 0.8,0.8 1.2,1.2 0.1,0.2 0.3,0.3 0.4,0.5 0,0.1 0.1,0.3 0.1,0.4 0,0.1 0,0.1 0.1,0 -0.5,0.5 -0.2,1.3 0.4,1.5 0.7,0.3 1.5,0 2,-0.5 0.6,-0.7 0.5,-1.7 0.1,-2.4 -0.4,-0.8 -1.1,-1.3 -1.7,-1.9 -0.5,-0.5 -1.3,-0.6 -2,-0.3 -0.4,0.1 -1.1,0.9 -0.6,1.5 z"
             id="path3776"
             style="fill:#ffffff" /></g></g><g
         id="g3786"><g
           id="g3784"><path
             class="st7"
             d="m 204.9,270.8 c 0.4,0.2 0.5,0.6 0.5,1 0.1,0.6 1.3,0.4 1.6,0.3 0.5,-0.1 1.3,-0.4 1.3,-1.1 -0.1,-0.7 -0.5,-1.2 -1.1,-1.6 -0.6,-0.3 -1.5,0 -2,0.3 -0.4,0.3 -0.8,0.7 -0.3,1.1 z"
             id="path3782"
             style="fill:#ffffff" /></g></g><g
         id="g3792"><g
           id="g3790"><path
             class="st7"
             d="m 224.3,213.6 c 0.6,0.5 1.4,0.8 2.2,0.9 -0.1,-0.1 -0.2,-0.2 -0.2,-0.3 -0.1,0.4 -0.2,0.8 -0.5,1.2 -0.3,0.4 1.1,0.3 1.2,0.3 0.6,-0.1 1.3,-0.3 1.7,-0.8 0.3,-0.4 0.4,-0.7 0.5,-1.2 0,-0.2 0,-0.3 -0.2,-0.3 -0.7,-0.1 -1.3,-0.4 -1.8,-0.8 -0.4,-0.4 -1.4,0 -1.9,0.1 -0.4,0.1 -1.5,0.6 -1,0.9 z"
             id="path3788"
             style="fill:#ffffff" /></g></g><g
         id="g3798"><g
           id="g3796"><path
             class="st7"
             d="m 224.7,203.6 c 0.3,0 0.6,0.1 0.8,0.3 0.3,0.2 0.3,0.7 0.3,1 0,0.2 0.4,0.4 0.6,0.5 0.3,0.1 0.8,0.1 1.1,0 0.6,-0.2 1.3,-0.5 1.2,-1.2 -0.1,-0.7 -0.2,-1.3 -0.8,-1.7 -0.6,-0.4 -1.4,-0.5 -2.1,-0.6 -0.6,-0.1 -1.6,0.2 -1.9,0.8 -0.4,0.6 0.3,0.8 0.8,0.9 z"
             id="path3794"
             style="fill:#ffffff" /></g></g><g
         id="g3804"><g
           id="g3802"><path
             class="st7"
             d="m 235.6,148.6 c 1.5,0.4 2.3,1.7 2.2,3.2 0,0.6 2.8,0.2 2.9,-0.8 0.1,-1.8 -1.1,-3.2 -2.8,-3.6 -0.7,-0.2 -1.4,0 -2,0.3 -0.3,0.2 -1,0.7 -0.3,0.9 z"
             id="path3800"
             style="fill:#ffffff" /></g></g><g
         id="g3810"><g
           id="g3808"><path
             class="st7"
             d="m 220,134.2 c 0.6,0.3 1.4,0.3 1.9,0.8 0.5,0.5 0.5,1.4 0.5,2.1 0,0.6 2.9,0.2 2.9,-0.8 0,-0.8 0,-1.7 -0.7,-2.3 -0.6,-0.6 -1.5,-0.7 -2.3,-1 -0.6,-0.2 -1.5,0.1 -2,0.3 -0.3,0.2 -0.9,0.7 -0.3,0.9 z"
             id="path3806"
             style="fill:#ffffff" /></g></g><g
         id="g3816"><g
           id="g3814"><path
             class="st7"
             d="m 224.1,159.5 c 0.6,0.1 1,0.6 1.2,1.2 0.2,1 3.1,0.3 2.9,-0.8 -0.2,-1.1 -1.2,-1.9 -2.3,-2 -0.7,-0.1 -1.5,0.1 -2,0.5 -0.5,0.4 -0.4,1 0.2,1.1 z"
             id="path3812"
             style="fill:#ffffff" /></g></g><g
         id="g3822"><g
           id="g3820"><path
             class="st7"
             d="m 214.1,164.4 c 0.9,0.5 1.7,1.1 2.4,1.9 0.5,0.6 1.4,0.5 2,0.2 0.5,-0.2 1.1,-0.9 0.7,-1.5 -0.8,-1 -1.7,-1.8 -2.8,-2.3 -0.7,-0.3 -1.5,-0.3 -2.1,0.2 -0.5,0.3 -0.9,1.2 -0.2,1.5 z"
             id="path3818"
             style="fill:#ffffff" /></g></g><g
         id="g3828"><g
           id="g3826"><path
             class="st7"
             d="m 245.5,169.9 c 0.5,0.3 0.9,0.7 0.9,1.3 0.1,0.7 1.2,0.7 1.7,0.5 0.6,-0.2 1.3,-0.6 1.2,-1.3 -0.1,-1 -0.8,-1.7 -1.6,-2.2 -0.6,-0.4 -1.5,-0.2 -2.1,0.2 -0.4,0.4 -0.7,1.1 -0.1,1.5 z"
             id="path3824"
             style="fill:#ffffff" /></g></g><g
         id="g3834"><g
           id="g3832"><path
             class="st7"
             d="m 225.8,183 c 0.2,0.4 0.6,0.7 0.7,1.2 0.1,0.5 0,0.9 -0.3,1.2 -0.4,0.6 0.4,0.9 0.8,0.9 0.7,0 1.5,-0.2 1.9,-0.8 0.4,-0.5 0.6,-1.1 0.5,-1.8 0,-0.3 -0.1,-0.5 -0.3,-0.8 -0.1,-0.3 -0.4,-0.5 -0.5,-0.7 -0.3,-0.6 -1.1,-0.6 -1.7,-0.4 -0.2,0.1 -1.4,0.6 -1.1,1.2 z"
             id="path3830"
             style="fill:#ffffff" /></g></g><g
         id="g3840"><g
           id="g3838"><path
             class="st7"
             d="m 234,175.4 c 0.3,0.2 0.7,0.4 0.9,0.6 0.2,0.2 0.2,0.4 0.2,0.7 0.1,0.7 1.3,0.6 1.7,0.5 0.6,-0.2 1.3,-0.6 1.2,-1.3 0,-0.5 -0.2,-0.9 -0.6,-1.3 -0.4,-0.4 -0.8,-0.6 -1.3,-0.9 -0.6,-0.4 -1.5,-0.2 -2.1,0.2 -0.3,0.5 -0.6,1.1 0,1.5 z"
             id="path3836"
             style="fill:#ffffff" /></g></g><g
         id="g3846"><g
           id="g3844"><path
             class="st7"
             d="m 220.4,174.9 c 0.2,0.4 0.5,0.7 0.8,0.9 0.4,0.2 0.8,0.4 0.8,0.9 0.8,-0.3 1.6,-0.7 2.4,-1 0,0 0,0 0,0 0.2,0.1 0.3,0.2 0.5,0.2 0,0 0,0 0,0 -0.4,-0.8 -3.2,0.3 -2.9,0.8 0.1,0.2 0.3,0.3 0.6,0.3 0.6,0 1.1,-0.1 1.6,-0.3 0.3,-0.1 0.7,-0.3 0.8,-0.7 0.1,-0.9 -1.2,-1.1 -1.6,-1.8 -0.5,-0.8 -3.3,0.2 -3,0.7 z"
             id="path3842"
             style="fill:#ffffff" /></g></g><g
         id="g3852"><g
           id="g3850"><path
             class="st7"
             d="m 218,189.1 c 0.5,0.4 0.9,0.7 1,1.4 0.1,0.7 1.3,0.6 1.7,0.5 0.6,-0.2 1.3,-0.6 1.2,-1.3 -0.1,-1 -0.9,-1.6 -1.6,-2.2 -1,-0.7 -3.6,0.6 -2.3,1.6 z"
             id="path3848"
             style="fill:#ffffff" /></g></g><g
         id="g3858"><g
           id="g3856"><path
             class="st7"
             d="m 236.7,186.7 c 0.4,0.3 0.7,0.7 1,1.1 0.4,0.7 3.1,-0.4 2.9,-0.8 -0.3,-0.5 -0.7,-1 -1.1,-1.3 -0.4,-0.3 -1.4,0 -1.9,0.2 -0.2,0.1 -1.3,0.5 -0.9,0.8 z"
             id="path3854"
             style="fill:#ffffff" /></g></g><g
         id="g3864"><g
           id="g3862"><path
             class="st7"
             d="m 228.5,192.2 c 0.3,0.2 0.6,0.5 0.8,0.9 0.7,0.9 3.5,-0.1 2.7,-1.2 -0.3,-0.5 -0.8,-0.9 -1.2,-1.2 -0.9,-0.7 -3.5,0.6 -2.3,1.5 z"
             id="path3860"
             style="fill:#ffffff" /></g></g><g
         id="g3870"><g
           id="g3868"><path
             class="st7"
             d="m 235.7,197.8 c 0.9,0.4 1.8,0.7 2,1.8 0.3,1.2 3.2,0.4 2.9,-0.8 -0.3,-1.4 -1.5,-2 -2.7,-2.5 -0.6,-0.3 -1.5,-0.2 -2.1,0.2 -0.4,0.2 -0.8,1 -0.1,1.3 z"
             id="path3866"
             style="fill:#ffffff" /></g></g><g
         id="g3876"><g
           id="g3874"><path
             class="st7"
             d="m 218.7,197 c 0.3,0.4 0.4,0.8 0.5,1.3 0,0.5 2.9,0 2.9,-0.8 0,-0.5 -0.2,-0.9 -0.5,-1.3 -0.3,-0.4 -1.2,-0.1 -1.6,0 -0.1,0 -1.5,0.5 -1.3,0.8 z"
             id="path3872"
             style="fill:#ffffff" /></g></g><g
         id="g3882"><g
           id="g3880"><path
             class="st7"
             d="m 226.9,196.8 c 0.4,0.3 0.7,0.6 0.9,1.1 0.1,0.4 1.6,0 1.4,-0.4 -0.2,-0.5 -0.5,-0.9 -1,-1.3 -0.3,-0.2 -0.7,-0.1 -0.9,0 -0.1,0.2 -0.6,0.5 -0.4,0.6 z"
             id="path3878"
             style="fill:#ffffff" /></g></g><g
         id="g3888"><g
           id="g3886"><path
             class="st7"
             d="m 218.4,205.9 c 0.3,0.3 0.4,0.6 0.5,1 0.1,0.3 1.5,0 1.4,-0.4 -0.1,-0.4 -0.3,-0.8 -0.5,-1.1 -0.3,-0.3 -1.7,0.2 -1.4,0.5 z"
             id="path3884"
             style="fill:#ffffff" /></g></g><g
         id="g3894"><g
           id="g3892"><path
             class="st7"
             d="m 234.7,208.8 c 0.2,0.1 0.3,0.3 0.3,0.5 0,0.6 1.4,0.3 1.4,-0.2 0,-0.5 -0.2,-0.8 -0.6,-1 -0.3,-0.2 -1.7,0.4 -1.1,0.7 z"
             id="path3890"
             style="fill:#ffffff" /></g></g><g
         id="g3900"><g
           id="g3898"><path
             class="st7"
             d="m 218.5,219.9 c 0.4,0.3 0.8,0.5 0.9,1 0.2,0.7 1.7,0.3 1.4,-0.4 -0.3,-0.7 -0.6,-1 -1.3,-1.4 -0.3,-0.2 -0.8,-0.1 -1,0.1 -0.1,0.1 -0.3,0.5 0,0.7 z"
             id="path3896"
             style="fill:#ffffff" /></g></g><g
         id="g3906"><g
           id="g3904"><path
             class="st7"
             d="m 220.3,226.6 c 0.6,0.1 0.9,0.4 1,1 0.1,0.4 1.5,0 1.4,-0.4 -0.2,-0.7 -0.6,-1 -1.3,-1.2 -0.3,-0.1 -0.7,0 -1,0.2 -0.1,0 -0.5,0.3 -0.1,0.4 z"
             id="path3902"
             style="fill:#ffffff" /></g></g><g
         id="g3912"><g
           id="g3910"><path
             class="st7"
             d="m 235.4,215.3 c 0.3,0.3 0.6,0.3 0.9,0.6 0.3,0.3 0.4,0.8 0.5,1.3 0.1,0.3 1.5,-0.1 1.4,-0.4 -0.1,-0.4 -0.2,-0.9 -0.5,-1.3 -0.3,-0.3 -0.7,-0.4 -1,-0.7 -0.2,-0.3 -1.5,0.3 -1.3,0.5 z"
             id="path3908"
             style="fill:#ffffff" /></g></g><g
         id="g3918"><g
           id="g3916"><path
             class="st7"
             d="m 229.1,168 c 0.4,0.1 0.8,0.3 0.9,0.8 0.1,0.6 1.6,0.2 1.4,-0.4 -0.1,-0.7 -0.8,-1 -1.4,-1.2 -0.6,-0.3 -1.8,0.5 -0.9,0.8 z"
             id="path3914"
             style="fill:#ffffff" /></g></g><g
         id="g3924"><g
           id="g3922"><path
             class="st7"
             d="m 237,164.6 c 0.2,0.1 0.2,0.1 0.3,0.3 0.2,0.4 1.6,-0.1 1.4,-0.4 -0.1,-0.2 -0.2,-0.3 -0.4,-0.4 -0.3,-0.1 -0.7,-0.1 -0.9,0.1 -0.1,-0.1 -0.7,0.2 -0.4,0.4 z"
             id="path3920"
             style="fill:#ffffff" /></g></g><g
         id="g3930"><g
           id="g3928"><path
             class="st7"
             d="m 231.7,127.8 c 0.1,0 0.2,0.1 0.2,0.2 0.2,0.5 1.6,0.1 1.4,-0.4 -0.1,-0.2 -0.3,-0.4 -0.5,-0.5 -0.4,-0.2 -1.7,0.4 -1.1,0.7 z"
             id="path3926"
             style="fill:#ffffff" /></g></g><g
         id="g3936"><g
           id="g3934"><path
             class="st7"
             d="m 224,283.4 c 0.2,0.1 0.3,0.2 0.4,0.4 0.3,0.4 1.7,-0.1 1.4,-0.5 -0.2,-0.2 -0.4,-0.4 -0.6,-0.5 -0.4,-0.3 -1.7,0.3 -1.2,0.6 z"
             id="path3932"
             style="fill:#ffffff" /></g></g></g><g
       class="st8"
       id="g3946"
       style="opacity:0.75"><linearGradient
         id="SVGID_1_"
         gradientUnits="userSpaceOnUse"
         x1="180.72971"
         y1="252.3754"
         x2="280.31561"
         y2="252.3754"><stop
           offset="1"
           style="stop-color:#8CC63F"
           id="stop3939" /><stop
           offset="1"
           style="stop-color:#FFFFFF;stop-opacity:0"
           id="stop3941" /></linearGradient><path
         class="st9"
         d="m 243.9,209.9 0.4,16 32.2,46.8 c 8.8,13 1.6,23.9 -10.9,23.4 l -74.2,0.8 c -12.1,0.7 -10.4,-17.1 -10.6,-20.6 l 35.7,-52.8 v -15.3 c 0,0 5.5,6.2 13.2,1.6 7.4,-4.5 14.2,0.1 14.2,0.1 z"
         id="path3944"
         style="fill:url(#SVGID_1_)" /></g><g
       id="g3952"><g
         id="g3950"><path
           class="st7"
           d="m 242.5,181.6 c -3.8,4.2 -3.1,10.3 -3.1,15.6 0.1,9.3 0.4,18.5 0.6,27.8 0,0.9 2.9,0.4 2.9,-0.8 -0.2,-7.3 -0.4,-14.7 -0.5,-22 -0.1,-5.9 -2,-15.2 2.4,-20 1.2,-1.4 -1.6,-1.4 -2.3,-0.6 z"
           id="path3948"
           style="fill:#ffffff" /></g></g><g
       id="g3958"><g
         id="g3956"><path
           class="st7"
           d="m 240.2,225.2 c 7.2,10.8 14.2,21.8 21.2,32.7 4.4,6.9 10.1,13.9 13.3,21.4 2.7,6.4 1.1,12.4 -5.8,14.8 -1.9,0.7 -0.1,1.2 1,0.8 3.9,-1.4 7.8,-3.9 8.8,-8.2 1.8,-8 -6.1,-16.5 -10.1,-22.8 -8.5,-13.2 -16.9,-26.5 -25.6,-39.6 -0.4,-0.7 -3.1,0.4 -2.8,0.9 z"
           id="path3954"
           style="fill:#ffffff" /></g></g><g
       id="g3974"><path
         class="st10"
         d="m 209.4,179.8 c 6.5,6.4 5.5,11.3 5.6,19 l 0.2,24.5 -31.8,47.7 c -7.7,12.8 -2.5,25.4 10.1,24.7 l 73,0.1 c 13.7,-0.1 18.6,-12.7 8.1,-26 L 244.4,223.6 243.8,199 c -0.1,-7.8 -1.1,-12.6 5.3,-19.1 z"
         id="path3960"
         style="fill:none;stroke:#504f4e;stroke-width:4;stroke-miterlimit:10" /><g
         id="g3972"><path
           class="st10"
           d="M 242.8,198.5 H 231.9"
           id="path3962"
           style="fill:none;stroke:#504f4e;stroke-width:4;stroke-miterlimit:10" /><path
           class="st10"
           d="M 242.8,217.8 H 231.9"
           id="path3964"
           style="fill:none;stroke:#504f4e;stroke-width:4;stroke-miterlimit:10" /><path
           class="st10"
           d="M 254,237.7 H 240.1"
           id="path3966"
           style="fill:none;stroke:#504f4e;stroke-width:4;stroke-miterlimit:10" /><path
           class="st10"
           d="M 263.8,253.1 H 249.7"
           id="path3968"
           style="fill:none;stroke:#504f4e;stroke-width:4;stroke-miterlimit:10" /><path
           class="st10"
           d="M 273.9,268.6 H 260.4"
           id="path3970"
           style="fill:none;stroke:#504f4e;stroke-width:4;stroke-miterlimit:10" /></g></g></g><g
     id="Ebene_3"
     transform="translate(2.4862792e-6,-189.25939)" /></svg>