<?xml version="1.0" encoding="utf-8"?>
<!-- Generator: Adobe Illustrator 21.1.0, SVG Export Plug-In . SVG Version: 6.00 Build 0)  -->
<svg version="1.1" xmlns="http://www.w3.org/2000/svg" xmlns:xlink="http://www.w3.org/1999/xlink" x="0px" y="0px"
	 viewBox="0 0 500 500" style="enable-background:new 0 0 500 500;" xml:space="preserve">
<style type="text/css">
	.st0{fill:#469C46;}
	.st1{fill:#4BA74B;}
	.st2{fill:#59AE50;}
	.st3{fill:#B9B89E;}
	.st4{opacity:0.9;}
	.st5{opacity:0.9;fill:#E7FFEB;stroke:#4D4D4D;stroke-linecap:round;stroke-miterlimit:10;}
	.st6{opacity:0.9;fill-rule:evenodd;clip-rule:evenodd;fill:#E7FFEB;stroke:#4D4D4D;stroke-linecap:round;stroke-miterlimit:10;}
	.st7{fill:#FFFFFF;}
	.st8{opacity:0.75;}
	.st9{fill:url(#SVGID_1_);}
	.st10{fill:none;stroke:#504F4E;stroke-width:4;stroke-miterlimit:10;}
</style>
<g id="Ebene_1">
	<g>
		<path class="st0" d="M249.5,289.1c0,0.4-0.2,0.6-0.5,0.7c-5.8,1.6-11.7,2.3-17.7,1.5c-0.1,0-0.3-0.1-0.4-0.1
			c2.3-3.1,2.6-6.1,0.7-8.6c-1.8-2.4-4.8-3.2-7.5-2.2c-3,1.1-4.4,3.7-4,7.9c-0.4-0.2-0.8-0.3-1.2-0.5c-3.4-1.5-6.4-3.5-9.1-6
			c-3.3-3-6.1-6.5-8.1-10.6c0.4-0.5,1-0.6,1.6-0.6c1.7,0,3.3,0.7,4.9,1.3c0.6,0.2,1.1,0.7,1.8,0.6c0,0,0.1,0.1,0.1,0.1
			c0,0.1,0,0.2,0.2,0.1c1.4,0.9,3,1.4,4.5,2c2.4,1,4.9,2.1,7.5,2.7c3,1.1,6,1.7,9.1,2.2c2.6,0.4,5.2,0.9,7.8,1
			c1.5,0.1,2.9,0.3,4.4,0.2c2.9,0,5.9-0.2,8.8-0.3c0.2,0.2,0.4,0.4,0.4,0.7c-0.1,1.4,0.3,2.8-0.1,4.2c-0.2,0.1-0.3,0.2-0.5,0.3
			c-0.2-0.1-0.4-0.1-0.3,0.2c-0.1,0.1-0.2,0.2-0.3,0.2c-0.8,0.3-1.2,0.8-1.3,1.6c-0.1,0.1-0.1,0.2-0.2,0.3
			C249.4,288.3,249.4,288.7,249.5,289.1z"/>
		<path class="st1" d="M222.2,277.4c-2.6-0.6-5.1-1.7-7.5-2.7c-1.5-0.6-3.1-1.1-4.5-2c-0.1,0-0.1-0.1-0.2-0.1c0,0-0.1-0.1-0.1-0.1
			c-0.5-0.4-1.1-0.6-1.6-0.8c-1.9-1-3.8-2-5.5-3.3c-0.4-0.3-0.8-0.6-1-1.1c1.1-0.7,2.3-1,3.5-1.1c2.5-0.3,5-0.2,7.5,0.3
			c0.5,0.1,0.8,0.3,1,0.7c2.1,4.6,7.2,6.1,11.5,3.5c0.4-0.3,0.8-0.4,1.2-0.2c3.4,1.2,7,2,10.6,2.4c0.5,0.1,1,0.1,1.1,0.7
			c0.4,1.3,1.4,2.1,2.4,2.9c0.2,0.1,0.5,0.2,0.4,0.5c-0.1,0.2-0.4,0.3-0.6,0.3c-0.6,0-1.2,0-1.7,0.1c-1.7,0.3-3.4,0.2-5.1,0.2
			c-3.4,0-6.9-0.2-10.3-0.6C222.8,277,222.4,277,222.2,277.4z"/>
		<path class="st2" d="M222.2,277.4c0.3-0.4,0.7-0.4,1.1-0.4c3.4,0.4,6.9,0.6,10.3,0.6c1.7,0,3.4,0,5.1-0.2c0.6-0.1,1.2,0,1.7-0.1
			c0.2,0,0.5-0.1,0.6-0.3c0.1-0.3-0.2-0.4-0.4-0.5c-1-0.8-2-1.6-2.4-2.9c0.9,1.3,2,2.5,3.5,3.1c3.6,1.6,7.8,0.2,9.5-3.4
			c0.3-0.5,0.6-0.8,1.2-0.8c3-0.2,6.1-0.6,9.1-0.3c2.4,0.2,4.7,0.7,6.6,2.3c0.8,0.7,1.8,0.7,2.8,0.7c0.2,0,0.4-0.1,0.7,0
			c-0.1,0.4-0.4,0.6-0.7,0.7c-0.2-0.2-0.4-0.1-0.6,0c-1.5,0.7-3,1.3-4.6,1.7c-2.5,0.7-4.9,1.5-7.5,1.9c-2,0.3-4,0.6-6.1,1
			c-2.9,0.1-5.9,0.3-8.8,0.3c-1.5,0-2.9-0.2-4.4-0.2c-2.6-0.1-5.2-0.6-7.8-1C228.2,279.1,225.1,278.5,222.2,277.4z"/>
		<path class="st1" d="M252.3,280.5c2-0.3,4-0.6,6.1-1c2.5-0.4,5-1.1,7.5-1.9c1.6-0.5,3.1-1,4.6-1.7c0.2-0.1,0.4-0.2,0.6,0
			c-2.1,1.8-4.6,3.2-6.6,5.2c-1.5,1.4-3.1,2.7-4.8,3.8c-0.5,0.3-0.8,0.4-1.4,0.2c-1.6-0.7-3.3-0.7-4.9,0c-0.2,0.1-0.5,0.2-0.7,0.3
			c0.4-1.4,0.1-2.8,0.1-4.2C252.6,280.9,252.5,280.7,252.3,280.5z"/>
		<path class="st3" d="M201.8,267.3c0.2,0.5,0.6,0.8,1,1.1c1.7,1.3,3.6,2.3,5.5,3.3c-0.1,0.1-0.1,0.2-0.2,0.3
			c-1.6-0.6-3.2-1.2-4.9-1.3c-0.6,0-1.2,0-1.6,0.6c-1.5-1.9-3.6-3.1-5.7-4.3c-1.3-0.8-2.5-1.6-3.5-2.7c-0.4-0.4-0.2-0.7,0-1
			c0.2-0.4,0.5-0.1,0.8,0c2,1.1,4,2.3,6.1,3.1C200.1,266.7,201,266.8,201.8,267.3z"/>
		<path class="st1" d="M250.1,287.8c0.1-0.8,0.5-1.4,1.3-1.6C251,286.7,250.5,287.3,250.1,287.8z"/>
		<path class="st1" d="M249.5,289.1c-0.1-0.5-0.1-0.8,0.4-1C249.9,288.5,249.7,288.8,249.5,289.1z"/>
		<path class="st1" d="M251.7,285.9c-0.1-0.3,0.1-0.3,0.3-0.2C251.9,285.9,251.8,285.9,251.7,285.9z"/>
		<path class="st2" d="M208.1,271.9c0.1-0.1,0.1-0.2,0.2-0.3c0.5,0.3,1.1,0.4,1.6,0.8C209.2,272.6,208.7,272.1,208.1,271.9z"/>
		<path class="st2" d="M210,272.6c0.1,0,0.1,0.1,0.2,0.1C210,272.7,210,272.7,210,272.6z"/>
	</g>
	<g class="st4">
		<circle class="st5" cx="224.6" cy="284" r="2.4"/>
		<circle class="st5" cx="219.4" cy="258.3" r="5.2"/>
		<circle class="st5" cx="230.4" cy="237.7" r="8"/>
		<circle class="st5" cx="204.5" cy="272.2" r="5.2"/>
		<circle class="st5" cx="241.1" cy="271.3" r="6.9"/>
		<path class="st5" d="M218.5,214.4c0.1-3.1,3.4-6.3,5.6-4.7c4.1,2.9,7.2,1,6.9,4.7c-0.2,2.7-4,7.4-6.3,6.3
			C223.1,219.9,218.4,217.2,218.5,214.4z"/>
		<circle class="st5" cx="219.2" cy="221" r="3.2"/>
		<path class="st5" d="M217.1,208.1c0-2,0.6-5.3,2.6-5c1.8,0.3,0.6,3.4,2,4.5c0.6,0.5-3.1,3.3-3.2,5.1
			C218.4,214.8,217.1,210.2,217.1,208.1z"/>
		<path class="st5" d="M224.3,197.5c-0.1-2.1,0.8-2.7,2.9-2.7c2.1,0,3.6,0.5,3.7,2.6c0.1,1.9-1.6,3.3-3.4,2.7
			C225.2,199.3,224.4,199.3,224.3,197.5z"/>
		<path class="st5" d="M230,199.9c2.6-2.5,3.3-5.7,6.3-6c3.4-0.3,6.2,2.5,6.2,6s-2.8,6.4-6.3,6.3C233.3,206.1,228.2,201.7,230,199.9
			z"/>
		<circle class="st5" cx="221.7" cy="177.1" r="4.3"/>
		<circle class="st5" cx="225.7" cy="184.3" r="5.1"/>
		<circle class="st5" cx="235.3" cy="218.4" r="5.3"/>
		<path class="st5" d="M217.1,190c-0.5-2.1-1.7-4.6,1.4-4.4c2.1,0.2,4,2.8,4.4,4.4c0.7,2.4-2,4.4-4.4,4.4S217.6,192.4,217.1,190z"/>
		<circle class="st5" cx="234.9" cy="178.3" r="5.4"/>
		<circle class="st5" cx="245.6" cy="171.6" r="5"/>
		<circle class="st5" cx="237.9" cy="188.8" r="5.1"/>
		<path class="st5" d="M229.5,209.5c0-2.7,3.4-3.1,6.1-3.1s2.9,0.6,2.9,3.3s-0.8,3.3-3.5,3.3S229.5,212.2,229.5,209.5z"/>
		<path class="st5" d="M216,198.3c0-2.5,3.1-3.6,5.2-4.3c2.4-0.8,3,1.6,2.4,4c-0.5,2.3-1.6,4.4-3,4.9
			C218.2,203.7,216,200.8,216,198.3z"/>
		<circle class="st5" cx="229.5" cy="169.3" r="3.5"/>
		<path class="st5" d="M226.2,191.4c0-2.2,4.4-4.8,5.5-3c0.8,1.4,0.7,3,2.1,4.2c1.1,0.9,0.1,3.1-1.9,3
			C229.8,195.6,226.2,193.6,226.2,191.4z"/>
		<circle class="st5" cx="226" cy="205.1" r="4.8"/>
		<circle class="st5" cx="220.9" cy="227.7" r="3.2"/>
		<circle class="st6" cx="221.8" cy="136.6" r="5.8"/>
		<circle class="st6" cx="225.3" cy="160.3" r="3.6"/>
		<circle class="st6" cx="236.1" cy="151.6" r="7.1"/>
		<circle class="st6" cx="215" cy="166.6" r="6"/>
		<circle class="st6" cx="237.6" cy="165" r="1.9"/>
		<circle class="st6" cx="231.8" cy="128.4" r="2.4"/>
	</g>
	<g id="Ebene_2">
		<g>
			<g>
				<path class="st7" d="M219,256.2c0.3,0.1,0.6,0.3,0.8,0.4c0.2,0.2,0.3,0.4,0.3,0.7c0.1,0.7,3,0.1,2.9-0.8c-0.1-0.8-0.7-1-1.3-1.4
					c-0.6-0.3-1.3-0.1-1.9,0.1C219.7,255.3,218.5,255.9,219,256.2L219,256.2z"/>
			</g>
		</g>
		<g>
			<g>
				<path class="st7" d="M231,233.3c0.9,0.6,1.4,1.4,1.7,2.4c0.3,1.3,3.2,0.6,2.9-0.8c-0.3-1.4-1.1-2.5-2.3-3.3
					c-0.6-0.4-1.5-0.2-2.1,0.2C230.7,232.2,230.4,232.9,231,233.3L231,233.3z"/>
			</g>
		</g>
		<g>
			<g>
				<path class="st7" d="M241.5,268.4c0.4,0.4,0.8,0.8,1.2,1.2c0.1,0.2,0.3,0.3,0.4,0.5c0,0.1,0.1,0.3,0.1,0.4c0,0.1,0,0.1,0.1,0
					c-0.5,0.5-0.2,1.3,0.4,1.5c0.7,0.3,1.5,0,2-0.5c0.6-0.7,0.5-1.7,0.1-2.4c-0.4-0.8-1.1-1.3-1.7-1.9c-0.5-0.5-1.3-0.6-2-0.3
					C241.7,267,241,267.8,241.5,268.4L241.5,268.4z"/>
			</g>
		</g>
		<g>
			<g>
				<path class="st7" d="M204.9,270.8c0.4,0.2,0.5,0.6,0.5,1c0.1,0.6,1.3,0.4,1.6,0.3c0.5-0.1,1.3-0.4,1.3-1.1
					c-0.1-0.7-0.5-1.2-1.1-1.6c-0.6-0.3-1.5,0-2,0.3C204.8,270,204.4,270.4,204.9,270.8L204.9,270.8z"/>
			</g>
		</g>
		<g>
			<g>
				<path class="st7" d="M224.3,213.6c0.6,0.5,1.4,0.8,2.2,0.9c-0.1-0.1-0.2-0.2-0.2-0.3c-0.1,0.4-0.2,0.8-0.5,1.2
					c-0.3,0.4,1.1,0.3,1.2,0.3c0.6-0.1,1.3-0.3,1.7-0.8c0.3-0.4,0.4-0.7,0.5-1.2c0-0.2,0-0.3-0.2-0.3c-0.7-0.1-1.3-0.4-1.8-0.8
					c-0.4-0.4-1.4,0-1.9,0.1C224.9,212.8,223.8,213.3,224.3,213.6L224.3,213.6z"/>
			</g>
		</g>
		<g>
			<g>
				<path class="st7" d="M224.7,203.6c0.3,0,0.6,0.1,0.8,0.3c0.3,0.2,0.3,0.7,0.3,1c0,0.2,0.4,0.4,0.6,0.5c0.3,0.1,0.8,0.1,1.1,0
					c0.6-0.2,1.3-0.5,1.2-1.2c-0.1-0.7-0.2-1.3-0.8-1.7c-0.6-0.4-1.4-0.5-2.1-0.6c-0.6-0.1-1.6,0.2-1.9,0.8
					C223.5,203.3,224.2,203.5,224.7,203.6L224.7,203.6z"/>
			</g>
		</g>
		<g>
			<g>
				<path class="st7" d="M235.6,148.6c1.5,0.4,2.3,1.7,2.2,3.2c0,0.6,2.8,0.2,2.9-0.8c0.1-1.8-1.1-3.2-2.8-3.6c-0.7-0.2-1.4,0-2,0.3
					C235.6,147.9,234.9,148.4,235.6,148.6L235.6,148.6z"/>
			</g>
		</g>
		<g>
			<g>
				<path class="st7" d="M220,134.2c0.6,0.3,1.4,0.3,1.9,0.8c0.5,0.5,0.5,1.4,0.5,2.1c0,0.6,2.9,0.2,2.9-0.8c0-0.8,0-1.7-0.7-2.3
					c-0.6-0.6-1.5-0.7-2.3-1c-0.6-0.2-1.5,0.1-2,0.3C220,133.5,219.4,134,220,134.2L220,134.2z"/>
			</g>
		</g>
		<g>
			<g>
				<path class="st7" d="M224.1,159.5c0.6,0.1,1,0.6,1.2,1.2c0.2,1,3.1,0.3,2.9-0.8c-0.2-1.1-1.2-1.9-2.3-2c-0.7-0.1-1.5,0.1-2,0.5
					C223.4,158.8,223.5,159.4,224.1,159.5L224.1,159.5z"/>
			</g>
		</g>
		<g>
			<g>
				<path class="st7" d="M214.1,164.4c0.9,0.5,1.7,1.1,2.4,1.9c0.5,0.6,1.4,0.5,2,0.2c0.5-0.2,1.1-0.9,0.7-1.5
					c-0.8-1-1.7-1.8-2.8-2.3c-0.7-0.3-1.5-0.3-2.1,0.2C213.8,163.2,213.4,164.1,214.1,164.4L214.1,164.4z"/>
			</g>
		</g>
		<g>
			<g>
				<path class="st7" d="M245.5,169.9c0.5,0.3,0.9,0.7,0.9,1.3c0.1,0.7,1.2,0.7,1.7,0.5c0.6-0.2,1.3-0.6,1.2-1.3
					c-0.1-1-0.8-1.7-1.6-2.2c-0.6-0.4-1.5-0.2-2.1,0.2C245.2,168.8,244.9,169.5,245.5,169.9L245.5,169.9z"/>
			</g>
		</g>
		<g>
			<g>
				<path class="st7" d="M225.8,183c0.2,0.4,0.6,0.7,0.7,1.2c0.1,0.5,0,0.9-0.3,1.2c-0.4,0.6,0.4,0.9,0.8,0.9c0.7,0,1.5-0.2,1.9-0.8
					c0.4-0.5,0.6-1.1,0.5-1.8c0-0.3-0.1-0.5-0.3-0.8c-0.1-0.3-0.4-0.5-0.5-0.7c-0.3-0.6-1.1-0.6-1.7-0.4
					C226.7,181.9,225.5,182.4,225.8,183L225.8,183z"/>
			</g>
		</g>
		<g>
			<g>
				<path class="st7" d="M234,175.4c0.3,0.2,0.7,0.4,0.9,0.6c0.2,0.2,0.2,0.4,0.2,0.7c0.1,0.7,1.3,0.6,1.7,0.5
					c0.6-0.2,1.3-0.6,1.2-1.3c0-0.5-0.2-0.9-0.6-1.3c-0.4-0.4-0.8-0.6-1.3-0.9c-0.6-0.4-1.5-0.2-2.1,0.2
					C233.7,174.4,233.4,175,234,175.4L234,175.4z"/>
			</g>
		</g>
		<g>
			<g>
				<path class="st7" d="M220.4,174.9c0.2,0.4,0.5,0.7,0.8,0.9c0.4,0.2,0.8,0.4,0.8,0.9c0.8-0.3,1.6-0.7,2.4-1c0,0,0,0,0,0
					c0.2,0.1,0.3,0.2,0.5,0.2c0,0,0,0,0,0c-0.4-0.8-3.2,0.3-2.9,0.8c0.1,0.2,0.3,0.3,0.6,0.3c0.6,0,1.1-0.1,1.6-0.3
					c0.3-0.1,0.7-0.3,0.8-0.7c0.1-0.9-1.2-1.1-1.6-1.8C222.9,173.4,220.1,174.4,220.4,174.9L220.4,174.9z"/>
			</g>
		</g>
		<g>
			<g>
				<path class="st7" d="M218,189.1c0.5,0.4,0.9,0.7,1,1.4c0.1,0.7,1.3,0.6,1.7,0.5c0.6-0.2,1.3-0.6,1.2-1.3c-0.1-1-0.9-1.6-1.6-2.2
					C219.3,186.8,216.7,188.1,218,189.1L218,189.1z"/>
			</g>
		</g>
		<g>
			<g>
				<path class="st7" d="M236.7,186.7c0.4,0.3,0.7,0.7,1,1.1c0.4,0.7,3.1-0.4,2.9-0.8c-0.3-0.5-0.7-1-1.1-1.3
					c-0.4-0.3-1.4,0-1.9,0.2C237.4,186,236.3,186.4,236.7,186.7L236.7,186.7z"/>
			</g>
		</g>
		<g>
			<g>
				<path class="st7" d="M228.5,192.2c0.3,0.2,0.6,0.5,0.8,0.9c0.7,0.9,3.5-0.1,2.7-1.2c-0.3-0.5-0.8-0.9-1.2-1.2
					C229.9,190,227.3,191.3,228.5,192.2L228.5,192.2z"/>
			</g>
		</g>
		<g>
			<g>
				<path class="st7" d="M235.7,197.8c0.9,0.4,1.8,0.7,2,1.8c0.3,1.2,3.2,0.4,2.9-0.8c-0.3-1.4-1.5-2-2.7-2.5
					c-0.6-0.3-1.5-0.2-2.1,0.2C235.4,196.7,235,197.5,235.7,197.8L235.7,197.8z"/>
			</g>
		</g>
		<g>
			<g>
				<path class="st7" d="M218.7,197c0.3,0.4,0.4,0.8,0.5,1.3c0,0.5,2.9,0,2.9-0.8c0-0.5-0.2-0.9-0.5-1.3c-0.3-0.4-1.2-0.1-1.6,0
					C219.9,196.2,218.5,196.7,218.7,197L218.7,197z"/>
			</g>
		</g>
		<g>
			<g>
				<path class="st7" d="M226.9,196.8c0.4,0.3,0.7,0.6,0.9,1.1c0.1,0.4,1.6,0,1.4-0.4c-0.2-0.5-0.5-0.9-1-1.3
					c-0.3-0.2-0.7-0.1-0.9,0C227.2,196.4,226.7,196.7,226.9,196.8L226.9,196.8z"/>
			</g>
		</g>
		<g>
			<g>
				<path class="st7" d="M218.4,205.9c0.3,0.3,0.4,0.6,0.5,1c0.1,0.3,1.5,0,1.4-0.4c-0.1-0.4-0.3-0.8-0.5-1.1
					C219.5,205.1,218.1,205.6,218.4,205.9L218.4,205.9z"/>
			</g>
		</g>
		<g>
			<g>
				<path class="st7" d="M234.7,208.8c0.2,0.1,0.3,0.3,0.3,0.5c0,0.6,1.4,0.3,1.4-0.2c0-0.5-0.2-0.8-0.6-1
					C235.5,207.9,234.1,208.5,234.7,208.8L234.7,208.8z"/>
			</g>
		</g>
		<g>
			<g>
				<path class="st7" d="M218.5,219.9c0.4,0.3,0.8,0.5,0.9,1c0.2,0.7,1.7,0.3,1.4-0.4c-0.3-0.7-0.6-1-1.3-1.4
					c-0.3-0.2-0.8-0.1-1,0.1C218.4,219.3,218.2,219.7,218.5,219.9L218.5,219.9z"/>
			</g>
		</g>
		<g>
			<g>
				<path class="st7" d="M220.3,226.6c0.6,0.1,0.9,0.4,1,1c0.1,0.4,1.5,0,1.4-0.4c-0.2-0.7-0.6-1-1.3-1.2c-0.3-0.1-0.7,0-1,0.2
					C220.3,226.2,219.9,226.5,220.3,226.6L220.3,226.6z"/>
			</g>
		</g>
		<g>
			<g>
				<path class="st7" d="M235.4,215.3c0.3,0.3,0.6,0.3,0.9,0.6c0.3,0.3,0.4,0.8,0.5,1.3c0.1,0.3,1.5-0.1,1.4-0.4
					c-0.1-0.4-0.2-0.9-0.5-1.3c-0.3-0.3-0.7-0.4-1-0.7C236.5,214.5,235.2,215.1,235.4,215.3L235.4,215.3z"/>
			</g>
		</g>
		<g>
			<g>
				<path class="st7" d="M229.1,168c0.4,0.1,0.8,0.3,0.9,0.8c0.1,0.6,1.6,0.2,1.4-0.4c-0.1-0.7-0.8-1-1.4-1.2
					C229.4,166.9,228.2,167.7,229.1,168L229.1,168z"/>
			</g>
		</g>
		<g>
			<g>
				<path class="st7" d="M237,164.6c0.2,0.1,0.2,0.1,0.3,0.3c0.2,0.4,1.6-0.1,1.4-0.4c-0.1-0.2-0.2-0.3-0.4-0.4
					c-0.3-0.1-0.7-0.1-0.9,0.1C237.3,164.1,236.7,164.4,237,164.6L237,164.6z"/>
			</g>
		</g>
		<g>
			<g>
				<path class="st7" d="M231.7,127.8c0.1,0,0.2,0.1,0.2,0.2c0.2,0.5,1.6,0.1,1.4-0.4c-0.1-0.2-0.3-0.4-0.5-0.5
					C232.4,126.9,231.1,127.5,231.7,127.8L231.7,127.8z"/>
			</g>
		</g>
		<g>
			<g>
				<path class="st7" d="M224,283.4c0.2,0.1,0.3,0.2,0.4,0.4c0.3,0.4,1.7-0.1,1.4-0.5c-0.2-0.2-0.4-0.4-0.6-0.5
					C224.8,282.5,223.5,283.1,224,283.4L224,283.4z"/>
			</g>
		</g>
	</g>
	<g class="st8">
		<linearGradient id="SVGID_1_" gradientUnits="userSpaceOnUse" x1="180.7297" y1="252.3754" x2="280.3156" y2="252.3754">
			<stop  offset="1" style="stop-color:#8CC63F"/>
			<stop  offset="1" style="stop-color:#FFFFFF;stop-opacity:0"/>
		</linearGradient>
		<path class="st9" d="M243.9,209.9l0.4,16l32.2,46.8c8.8,13,1.6,23.9-10.9,23.4l-74.2,0.8c-12.1,0.7-10.4-17.1-10.6-20.6l35.7-52.8
			l0-15.3c0,0,5.5,6.2,13.2,1.6C237.1,205.3,243.9,209.9,243.9,209.9z"/>
	</g>
	<g>
		<g>
			<path class="st7" d="M242.5,181.6c-3.8,4.2-3.1,10.3-3.1,15.6c0.1,9.3,0.4,18.5,0.6,27.8c0,0.9,2.9,0.4,2.9-0.8
				c-0.2-7.3-0.4-14.7-0.5-22c-0.1-5.9-2-15.2,2.4-20C246,180.8,243.2,180.8,242.5,181.6L242.5,181.6z"/>
		</g>
	</g>
	<g>
		<g>
			<path class="st7" d="M240.2,225.2c7.2,10.8,14.2,21.8,21.2,32.7c4.4,6.9,10.1,13.9,13.3,21.4c2.7,6.4,1.1,12.4-5.8,14.8
				c-1.9,0.7-0.1,1.2,1,0.8c3.9-1.4,7.8-3.9,8.8-8.2c1.8-8-6.1-16.5-10.1-22.8c-8.5-13.2-16.9-26.5-25.6-39.6
				C242.6,223.6,239.9,224.7,240.2,225.2L240.2,225.2z"/>
		</g>
	</g>
	<g>
		<path class="st10" d="M209.4,179.8c6.5,6.4,5.5,11.3,5.6,19l0.2,24.5L183.4,271c-7.7,12.8-2.5,25.4,10.1,24.7l73,0.1
			c13.7-0.1,18.6-12.7,8.1-26l-30.2-46.2l-0.6-24.6c-0.1-7.8-1.1-12.6,5.3-19.1L209.4,179.8L209.4,179.8z"/>
		<g>
			<path class="st10" d="M242.8,198.5h-10.9"/>
			<path class="st10" d="M242.8,217.8h-10.9"/>
			<path class="st10" d="M254,237.7h-13.9"/>
			<path class="st10" d="M263.8,253.1h-14.1"/>
			<path class="st10" d="M273.9,268.6h-13.5"/>
		</g>
	</g>
</g>
<g id="Ebene_3">
</g>
</svg>
